<?xml version="1.0" encoding="utf-8"?>
<?xml-stylesheet type="text/xsl" href="rss1.xsl"?>
<rss version="2.0" xmlns:atom="http://www.w3.org/2005/Atom" xmlns:content="http://purl.org/rss/1.0/modules/content/" xmlns:dc="http://purl.org/dc/elements/1.1/" xmlns:media="http://search.yahoo.com/mrss/">
<channel>
 <title>Getty</title>
 <link>http://www.gettyimg.com/</link>
 <atom:link href="http://www.gettyimg.com/" rel="self" type="application/rss+xml" />

 
                <item>
                <title><![CDATA[【HD Live Performances】WEB-RiP - Annalisa - Sinceramente - CTCF 11-02-24 Nove IPTV 1080p]]></title>
                <link><![CDATA[https://sharemania.us/threads/annalisa-sinceramente-ctcf-11-02-24-nove-iptv-1080p.237542/]]></link>
                <description><![CDATA[<article>
<blockquote class="messageText SelectQuoteContainer ugc baseHtml">
<img src="https://i.imgur.com/NyK1sko.png" class="bbCodeImage LbImage" alt="[​IMG]" data-url="https://i.imgur.com/NyK1sko.png" style=""><br>
<br>
<div class="bbCodeBlock bbCodeCode">
<div class="type">Code:</div>
<pre>General
Complete name                            : Annalisa - Sinceramente - CTCF 11-02-24 Nove 1080p.mkv
Format                                   : Matroska
Format version                           : Version 4
File size                                : 258 MiB
Duration                                 : 4 min 36 s
Overall bit rate                         : 7 808 kb/s
Encoded date                             : UTC 2024-02-11 23:12:17
Writing application                      : mkvmerge v55.0.0 ('Waiting For Space') 64-bit
Writing library                          : libebml v1.4.2 + libmatroska v1.6.4
Video
ID                                       : 1
Format                                   : AVC
Format/Info                              : Advanced Video Codec
Format profile                           : Main@L4.2
Format settings                          : CABAC / 2 Ref Frames
Format settings, CABAC                   : Yes
Format settings, Reference frames        : 2 frames
Codec ID                                 : V_MPEG4/ISO/AVC
Duration                                 : 4 min 36 s
Bit rate                                 : 7 677 kb/s
Width                                    : 1 920 pixels
Height                                   : 1 080 pixels
Display aspect ratio                     : 16:9
Frame rate mode                          : Constant
Frame rate                               : 50.000 FPS
Color space                              : YUV
Chroma subsampling                       : 4:2:0
Bit depth                                : 8 bits
Scan type                                : Progressive
Bits/(Pixel*Frame)                       : 0.074
Stream size                              : 253 MiB (98%)
Language                                 : Italian
Default                                  : Yes
Forced                                   : No
Audio
ID                                       : 2
Format                                   : AAC LC
Format/Info                              : Advanced Audio Codec Low Complexity
Codec ID                                 : A_AAC-2
Duration                                 : 4 min 36 s
Bit rate                                 : 127 kb/s
Channel(s)                               : 2 channels
Channel layout                           : L R
Sampling rate                            : 48.0 kHz
Frame rate                               : 46.875 FPS (1024 SPF)
Compression mode                         : Lossy
Stream size                              : 4.17 MiB (2%)
Language                                 : Italian
Default                                  : Yes
Forced                                   : No

</pre>
</div>Pixeldrain:<br>
<div class="bbCodeBlock bbCodeVfcHH HiddenContent">
<div class="attribution type">Hidden Content:</div>
<blockquote>You must reply before you can see the hidden data contained here.</blockquote>
</div>
<div class="messageTextEndMarker">&nbsp;</div>
</blockquote>
</article>]]></description>
                <author><![CDATA[LLAVE1]]></author>
                </item>

                
                <item>
                <title><![CDATA[【Requests】[REQ AUD] - Siobhán Donaghy - Revolution In Me 20th Anniversary Edition Lossless]]></title>
                <link><![CDATA[https://sharemania.us/threads/siobh%C3%A1n-donaghy-revolution-in-me-20th-anniversary-edition-lossless.237541/]]></link>
                <description><![CDATA[<article>
<blockquote class="messageText SelectQuoteContainer ugc baseHtml">
Hi, does anyone have the new 20th Anniversary Edition of this album in lossless? Thanks in advance <img src="styles/default/xenforo/smilies/big_smile-48.png" class="mceSmilie" alt=":)" title="Smile    :)"><br>
<br>
<a href="https://www.qobuz.com/dk-en/album/revolution-in-me-siobhan-donaghy/ruxopfyf2mwxb" target="_blank" class="externalLink" rel="nofollow">https://www.qobuz.com/dk-en/album/revolution-in-me-siobhan-donaghy/ruxopfyf2mwxb</a>
<div class="messageTextEndMarker">&nbsp;</div>
</blockquote>
</article>]]></description>
                <author><![CDATA[rsalguerop6]]></author>
                </item>

                </channel></rss>